<svg width="104" height="104" viewBox="0 0 104 104" fill="none" xmlns="http://www.w3.org/2000/svg">
<path fill-rule="evenodd" clip-rule="evenodd" d="M52 0.666748C23.65 0.666748 0.666687 23.6501 0.666687 52.0001C0.666687 80.3501 23.65 103.333 52 103.333C80.35 103.333 103.333 80.3501 103.333 52.0001C103.333 23.6501 80.35 0.666748 52 0.666748ZM56.6667 28.6667C56.6667 27.4291 56.175 26.2421 55.2999 25.3669C54.4247 24.4917 53.2377 24.0001 52 24.0001C50.7623 24.0001 49.5754 24.4917 48.7002 25.3669C47.825 26.2421 47.3334 27.4291 47.3334 28.6667V56.6667C47.3334 57.9044 47.825 59.0914 48.7002 59.9666C49.5754 60.8417 50.7623 61.3334 52 61.3334C53.2377 61.3334 54.4247 60.8417 55.2999 59.9666C56.175 59.0914 56.6667 57.9044 56.6667 56.6667V28.6667ZM56.6667 73.0001C56.6667 71.7624 56.175 70.5754 55.2999 69.7002C54.4247 68.8251 53.2377 68.3334 52 68.3334C50.7623 68.3334 49.5754 68.8251 48.7002 69.7002C47.825 70.5754 47.3334 71.7624 47.3334 73.0001V75.3334C47.3334 76.5711 47.825 77.7581 48.7002 78.6332C49.5754 79.5084 50.7623 80.0001 52 80.0001C53.2377 80.0001 54.4247 79.5084 55.2999 78.6332C56.175 77.7581 56.6667 76.5711 56.6667 75.3334V73.0001Z" fill="#FF4949"/>
</svg>
