<svg width="17" height="18" viewBox="0 0 17 18" fill="none" xmlns="http://www.w3.org/2000/svg">
<g clip-path="url(#clip0_61:3)">
<path d="M8.69763 1.25196C8.57078 1.19814 8.42922 1.19814 8.30237 1.25196L1.96137 3.93734L8.5 6.70596L15.0386 3.93734L8.69763 1.25196ZM15.9375 4.76871L9.03125 7.69371V16.606L15.9375 13.681V4.76984V4.76871ZM7.96875 16.6071V7.69259L1.0625 4.76871V13.6821L7.96875 16.6071ZM7.90819 0.206838C8.2881 0.0459627 8.7119 0.0459627 9.09181 0.206838L16.6664 3.41534C16.7649 3.45713 16.8493 3.52918 16.9087 3.62221C16.9682 3.71525 17 3.825 17 3.93734V13.6821C16.9999 13.9069 16.9361 14.1265 16.817 14.3126C16.6979 14.4987 16.5288 14.6427 16.3317 14.7261L8.69763 17.9593C8.57078 18.0132 8.42922 18.0132 8.30237 17.9593L0.669375 14.7261C0.472017 14.6429 0.302751 14.4989 0.183432 14.3128C0.0641131 14.1267 0.000219225 13.907 0 13.6821L0 3.93734C2.46924e-05 3.825 0.0318152 3.71525 0.0912762 3.62221C0.150737 3.52918 0.235145 3.45713 0.333625 3.41534L7.90819 0.206838Z" fill="black"/>
</g>
<defs>
<clipPath id="clip0_61:3">
<rect width="17" height="18" fill="white"/>
</clipPath>
</defs>
</svg>
