<svg width="42" height="42" viewBox="0 0 42 42" fill="none" xmlns="http://www.w3.org/2000/svg">
<g clip-path="url(#clip0_61_49)">
<path d="M21.4882 2.92133C21.1749 2.79574 20.8251 2.79574 20.5118 2.92133L4.84575 9.18721L21 15.6473L37.1543 9.18721L21.4882 2.92133ZM39.375 11.1271L22.3125 17.9521V38.7473L39.375 31.9223V11.1297V11.1271ZM19.6875 38.75V17.9495L2.625 11.1271V31.925L19.6875 38.75ZM19.5379 0.482705C20.4765 0.107328 21.5235 0.107328 22.4621 0.482705L41.1758 7.9692C41.4191 8.06671 41.6276 8.23483 41.7745 8.45191C41.9214 8.669 41.9999 8.92509 42 9.18721V31.925C41.9997 32.4495 41.8422 32.9619 41.5479 33.3961C41.2536 33.8303 40.836 34.1664 40.3489 34.361L21.4882 41.9052C21.1749 42.0308 20.8251 42.0308 20.5118 41.9052L1.65375 34.361C1.16616 34.1668 0.747974 33.8309 0.453185 33.3966C0.158397 32.9624 0.000541614 32.4498 0 31.925L0 9.18721C6.10049e-05 8.92509 0.0786023 8.669 0.225506 8.45191C0.372409 8.23483 0.580946 8.06671 0.82425 7.9692L19.5379 0.482705Z" fill="white"/>
</g>
<defs>
<clipPath id="clip0_61_49">
<rect width="42" height="42" fill="white"/>
</clipPath>
</defs>
</svg>
