<svg width="76" height="76" viewBox="0 0 76 76" fill="none" xmlns="http://www.w3.org/2000/svg">
<path d="M76 38C76 48.0782 71.9964 57.7437 64.8701 64.8701C57.7437 71.9964 48.0782 76 38 76C27.9218 76 18.2563 71.9964 11.1299 64.8701C4.00356 57.7437 0 48.0782 0 38C0 27.9218 4.00356 18.2563 11.1299 11.1299C18.2563 4.00356 27.9218 0 38 0C48.0782 0 57.7437 4.00356 64.8701 11.1299C71.9964 18.2563 76 27.9218 76 38V38ZM57.1425 23.6075C56.8032 23.2694 56.3992 23.0032 55.9547 22.8248C55.5101 22.6464 55.0342 22.5595 54.5553 22.5692C54.0764 22.579 53.6044 22.6852 53.1675 22.8815C52.7306 23.0779 52.3377 23.3604 52.0125 23.712L35.5158 44.7307L25.574 34.7842C24.8987 34.155 24.0054 33.8124 23.0825 33.8287C22.1596 33.845 21.279 34.2188 20.6263 34.8715C19.9736 35.5243 19.5997 36.4048 19.5834 37.3278C19.5671 38.2507 19.9097 39.1439 20.539 39.8193L33.1075 52.3925C33.4461 52.7305 33.8493 52.9968 34.293 53.1756C34.7368 53.3543 35.212 53.4419 35.6903 53.433C36.1686 53.4242 36.6402 53.319 37.0771 53.124C37.5139 52.9289 37.9069 52.6478 38.2327 52.2975L57.1948 28.595C57.8412 27.9229 58.1983 27.0241 58.1894 26.0916C58.1805 25.159 57.8064 24.2672 57.1473 23.6075H57.1425Z" fill="#04D141"/>
</svg>
