<svg width="25" height="25" viewBox="0 0 25 25" fill="none" xmlns="http://www.w3.org/2000/svg">
<path d="M12.5 0.6875C5.97676 0.6875 0.6875 5.97676 0.6875 12.5C0.6875 19.0232 5.97676 24.3125 12.5 24.3125C19.0232 24.3125 24.3125 19.0232 24.3125 12.5C24.3125 5.97676 19.0232 0.6875 12.5 0.6875ZM17.1538 16.1308L16.3997 17.1591C16.3833 17.1815 16.3626 17.2004 16.3389 17.2148C16.3152 17.2292 16.2888 17.2387 16.2614 17.2429C16.2339 17.247 16.2059 17.2457 16.179 17.2391C16.1521 17.2324 16.1267 17.2204 16.1044 17.2039L11.7433 14.024C11.7161 14.0045 11.694 13.9788 11.6789 13.9489C11.6637 13.9191 11.656 13.8861 11.6562 13.8526V6.59375C11.6562 6.47773 11.7512 6.38281 11.8672 6.38281H13.1354C13.2515 6.38281 13.3464 6.47773 13.3464 6.59375V13.1196L17.1063 15.8381C17.2013 15.904 17.2224 16.0358 17.1538 16.1308Z" fill="#FFBC11"/>
</svg>
