<svg width="60" height="60" viewBox="0 0 60 60" fill="none" xmlns="http://www.w3.org/2000/svg">
<path d="M12.5 54.9995H47.5C48.8261 54.9995 50.0979 54.4728 51.0355 53.5351C51.9732 52.5974 52.5 51.3256 52.5 49.9995V27.4995C52.5019 27.1705 52.4388 26.8444 52.3144 26.5398C52.19 26.2352 52.0067 25.9581 51.775 25.7245L31.775 5.72454C31.3066 5.25891 30.673 4.99756 30.0125 4.99756C29.352 4.99756 28.7184 5.25891 28.25 5.72454L8.25 25.7245C8.01378 25.9561 7.82585 26.2322 7.69711 26.5369C7.56837 26.8416 7.50137 27.1688 7.5 27.4995V49.9995C7.5 51.3256 8.02678 52.5974 8.96447 53.5351C9.90215 54.4728 11.1739 54.9995 12.5 54.9995ZM25 49.9995V37.4995H35V49.9995H25ZM12.5 28.5245L30 11.0245L47.5 28.5245V49.9995H40V37.4995C40 36.1735 39.4732 34.9017 38.5355 33.964C37.5979 33.0263 36.3261 32.4995 35 32.4995H25C23.6739 32.4995 22.4021 33.0263 21.4645 33.964C20.5268 34.9017 20 36.1735 20 37.4995V49.9995H12.5V28.5245Z" fill="white"/>
</svg>
