<svg width="34" height="34" viewBox="0 0 34 34" fill="none" xmlns="http://www.w3.org/2000/svg">
<path d="M14.1667 7.55554H22.6667V9.44443H14.1667V7.55554Z" fill="white"/>
<path d="M14.1667 11.3334H22.6667V13.2223H14.1667V11.3334Z" fill="white"/>
<path d="M14.1667 15.1111H22.6667V17H14.1667V15.1111Z" fill="white"/>
<path d="M14.1667 18.8889H22.6667V20.7778H14.1667V18.8889Z" fill="white"/>
<path d="M14.1667 22.6666H22.6667V24.5555H14.1667V22.6666Z" fill="white"/>
<path d="M10.3889 7.55554H12.2778V9.44443H10.3889V7.55554Z" fill="white"/>
<path d="M10.3889 11.3334H12.2778V13.2223H10.3889V11.3334Z" fill="white"/>
<path d="M10.3889 15.1111H12.2778V17H10.3889V15.1111Z" fill="white"/>
<path d="M10.3889 18.8889H12.2778V20.7778H10.3889V18.8889Z" fill="white"/>
<path d="M10.3889 22.6666H12.2778V24.5555H10.3889V22.6666Z" fill="white"/>
<path d="M26.4444 1.88892H7.55555C7.05458 1.88892 6.57413 2.08792 6.2199 2.44216C5.86566 2.79639 5.66666 3.27684 5.66666 3.7778V30.2222C5.66666 30.7232 5.86566 31.2037 6.2199 31.5579C6.57413 31.9121 7.05458 32.1111 7.55555 32.1111H26.4444C26.9454 32.1111 27.4258 31.9121 27.7801 31.5579C28.1343 31.2037 28.3333 30.7232 28.3333 30.2222V3.7778C28.3333 3.27684 28.1343 2.79639 27.7801 2.44216C27.4258 2.08792 26.9454 1.88892 26.4444 1.88892ZM26.4444 30.2222H7.55555V3.7778H26.4444V30.2222Z" fill="white"/>
</svg>
