<svg width="88" height="88" viewBox="0 0 88 88" fill="none" xmlns="http://www.w3.org/2000/svg">
<path d="M44 5.5C22.7391 5.5 5.5 22.7391 5.5 44C5.5 65.2609 22.7391 82.5 44 82.5C65.2609 82.5 82.5 65.2609 82.5 44C82.5 22.7391 65.2609 5.5 44 5.5ZM59.168 55.8336L56.7102 59.1852C56.6567 59.2581 56.5893 59.3198 56.512 59.3667C56.4346 59.4136 56.3487 59.4447 56.2593 59.4583C56.1698 59.4718 56.0786 59.4676 55.9908 59.4458C55.903 59.424 55.8204 59.3851 55.7477 59.3313L41.5336 48.9672C41.445 48.9036 41.3731 48.8197 41.3237 48.7225C41.2744 48.6252 41.2491 48.5176 41.25 48.4086V24.75C41.25 24.3719 41.5594 24.0625 41.9375 24.0625H46.0711C46.4492 24.0625 46.7586 24.3719 46.7586 24.75V46.0195L59.0133 54.8797C59.3227 55.0945 59.3914 55.5242 59.168 55.8336Z" fill="white"/>
</svg>
