<svg width="24" height="24" viewBox="0 0 24 24" fill="none" xmlns="http://www.w3.org/2000/svg">
<path d="M12.043 6.92494C10.7228 6.92627 9.45703 7.45123 8.52341 8.38466C7.5898 9.31809 7.06458 10.5837 7.06299 11.9039C7.06199 12.8439 7.32599 13.7599 7.82399 14.5529L7.94199 14.7409L7.43899 16.5779L9.32399 16.0839L9.50499 16.1919C10.2725 16.6462 11.1481 16.8856 12.04 16.8849H12.041C13.3608 16.8831 14.626 16.3581 15.5593 15.4249C16.4926 14.4918 17.0179 13.2267 17.02 11.9069C17.0223 11.2528 16.8948 10.6046 16.6448 10.0001C16.3949 9.39551 16.0275 8.84654 15.564 8.38494C15.1028 7.92079 14.5542 7.55275 13.9498 7.30213C13.3454 7.05152 12.6973 6.92331 12.043 6.92494ZM14.971 14.0429C14.846 14.3929 14.248 14.7109 13.961 14.7539C13.6464 14.8082 13.3234 14.788 13.018 14.6949C12.7282 14.6052 12.4435 14.5001 12.165 14.3799C10.663 13.7319 9.68299 12.2209 9.60699 12.1199C9.53299 12.0199 8.99699 11.3079 8.99699 10.5719C8.99699 9.83494 9.38299 9.47294 9.51999 9.32294C9.57029 9.2661 9.63178 9.22025 9.7006 9.18825C9.76943 9.15624 9.84411 9.13878 9.91999 9.13694C10.02 9.13694 10.119 9.13794 10.207 9.14194C10.299 9.14594 10.422 9.10694 10.543 9.39894C10.668 9.69894 10.968 10.4349 11.005 10.5099C11.042 10.5839 11.067 10.6719 11.018 10.7719C10.968 10.8729 10.944 10.9339 10.868 11.0219C10.794 11.1099 10.711 11.2169 10.644 11.2849C10.569 11.3589 10.491 11.4399 10.578 11.5899C10.666 11.7389 10.966 12.2299 11.41 12.6269C11.982 13.1369 12.465 13.2939 12.614 13.3699C12.764 13.4439 12.851 13.4329 12.939 13.3319C13.026 13.2309 13.313 12.8949 13.413 12.7459C13.513 12.5959 13.612 12.6209 13.75 12.6699C13.887 12.7209 14.623 13.0819 14.772 13.1569C14.92 13.2309 15.021 13.2689 15.059 13.3319C15.095 13.3939 15.095 13.6929 14.971 14.0429Z" fill="#0DC143"/>
<path d="M20 3H4C3.73478 3 3.48043 3.10536 3.29289 3.29289C3.10536 3.48043 3 3.73478 3 4V20C3 20.2652 3.10536 20.5196 3.29289 20.7071C3.48043 20.8946 3.73478 21 4 21H20C20.2652 21 20.5196 20.8946 20.7071 20.7071C20.8946 20.5196 21 20.2652 21 20V4C21 3.73478 20.8946 3.48043 20.7071 3.29289C20.5196 3.10536 20.2652 3 20 3ZM12.04 17.896H12.038C11.0381 17.8961 10.054 17.6455 9.176 17.167L6 18L6.85 14.896C6.32498 13.9852 6.04886 12.9523 6.04938 11.9011C6.04989 10.8498 6.32702 9.81718 6.85294 8.90691C7.37885 7.99665 8.13502 7.2408 9.04551 6.71528C9.95599 6.18976 10.9887 5.91307 12.04 5.913C12.8275 5.91082 13.6077 6.06501 14.3352 6.36661C15.0626 6.66822 15.723 7.11124 16.278 7.67C16.8356 8.22535 17.2774 8.8858 17.578 9.61308C17.8785 10.3404 18.0318 11.1201 18.029 11.907C18.0266 13.4946 17.3949 15.0166 16.2722 16.1392C15.1496 17.2619 13.6277 17.8936 12.04 17.896Z" fill="#0DC143"/>
</svg>
